<?xml version="1.0" encoding="UTF-8" standalone="no"?>
<!-- Created with Inkscape (http://www.inkscape.org/) -->

<svg
   xmlns:dc="http://purl.org/dc/elements/1.1/"
   xmlns:cc="http://creativecommons.org/ns#"
   xmlns:rdf="http://www.w3.org/1999/02/22-rdf-syntax-ns#"
   xmlns:svg="http://www.w3.org/2000/svg"
   xmlns="http://www.w3.org/2000/svg"
   version="1.1"
   width="150"
   height="165"
   id="svg2">
  <defs
     id="defs4" />
  <metadata
     id="metadata7">
    <rdf:RDF>
      <cc:Work
         rdf:about="">
        <dc:format>image/svg+xml</dc:format>
        <dc:type
           rdf:resource="http://purl.org/dc/dcmitype/StillImage" />
        <dc:title></dc:title>
      </cc:Work>
    </rdf:RDF>
  </metadata>
  <g
     transform="translate(-291.08711,-474.47681)"
     id="layer1">
    <path
       d="m 0,0 0,165 36.1875,0 0,-101.65625 L 20,47.15625 20,0 0,0 z m 35,0 0,16.6875 15.8125,0 L 50.8125,0 35,0 z m 32.0625,0 0,16.6875 15.875,0 0,-16.6875 -15.875,0 z m 32.125,0 0,16.6875 15.8125,0 L 115,0 99.1875,0 z M 130,0 130,47.15625 113.8125,63.34375 113.8125,165 150,165 150,0 130,0 z"
       transform="translate(291.08711,474.47681)"
       id="rect3829"
       style="fill:#dddddd;fill-opacity:1" />
  </g>
</svg>
