<?xml version="1.0" encoding="UTF-8" standalone="no"?>
<!-- Created with Inkscape (http://www.inkscape.org/) -->

<svg
   xmlns:dc="http://purl.org/dc/elements/1.1/"
   xmlns:cc="http://creativecommons.org/ns#"
   xmlns:rdf="http://www.w3.org/1999/02/22-rdf-syntax-ns#"
   xmlns:svg="http://www.w3.org/2000/svg"
   xmlns="http://www.w3.org/2000/svg"
   xmlns:sodipodi="http://sodipodi.sourceforge.net/DTD/sodipodi-0.dtd"
   xmlns:inkscape="http://www.inkscape.org/namespaces/inkscape"
   width="162.1115"
   height="242.8007"
   id="svg2"
   version="1.1"
   inkscape:version="0.48.5 r10040"
   sodipodi:docname="castle.svg">
  <defs
     id="defs4" />
  <sodipodi:namedview
     id="base"
     pagecolor="#ffffff"
     bordercolor="#666666"
     borderopacity="1.0"
     inkscape:pageopacity="0.0"
     inkscape:pageshadow="2"
     inkscape:zoom="0.49497475"
     inkscape:cx="-94.793015"
     inkscape:cy="82.340809"
     inkscape:document-units="px"
     inkscape:current-layer="layer1"
     showgrid="false"
     showguides="true"
     inkscape:guide-bbox="true"
     inkscape:window-width="1440"
     inkscape:window-height="799"
     inkscape:window-x="0"
     inkscape:window-y="1"
     inkscape:window-maximized="1"
     fit-margin-top="0"
     fit-margin-left="0"
     fit-margin-right="0"
     fit-margin-bottom="0" />
  <metadata
     id="metadata7">
    <rdf:RDF>
      <cc:Work
         rdf:about="">
        <dc:format>image/svg+xml</dc:format>
        <dc:type
           rdf:resource="http://purl.org/dc/dcmitype/StillImage" />
        <dc:title></dc:title>
      </cc:Work>
    </rdf:RDF>
  </metadata>
  <g
     inkscape:label="Layer 1"
     inkscape:groupmode="layer"
     id="layer1"
     transform="translate(-291.08711,-396.67611)">
    <path
       d="m 453.19861,466.07881 -23.8399,23.8308 0,149.5672 c -38.1439,0 -76.2878,0 -114.4317,0 l 0,-149.5672 -23.8399,-23.8308 c 0,-23.13423 0,-46.26847 0,-69.4027 l 22.0983,0 0,24.5484 23.3212,0 0,-24.5484 23.9326,0 0,24.5484 c 7.80243,0 15.60487,0 23.4073,0 l 0,-24.5484 23.9326,0 0,24.5484 23.3212,0 0,-24.5484 22.0983,0 c 0,23.13423 0,46.26847 0,69.4027 z"
       id="curva_3D.Plane.001"
       inkscape:connector-curvature="0"
       style="fill:#bbbbbb;fill-opacity:1;stroke:none"
       sodipodi:nodetypes="ccccccccccccccccccccc" />
  </g>
</svg>
